<svg id="Calque_1" xmlns="http://www.w3.org/2000/svg" viewBox="0 0 401.8 420.8"><style>.st0{fill:#f0f6fe}.st1{fill:#f0f6fe}.st2{fill:#f0f6fe}</style><path class="st0" d="M345.1 143.6h-77l36.1-99.2c24.9 25.7 40.4 60.6 40.9 99.2"/><path class="st1" d="M236.1 4.6c-11.7-3-23.9-4.6-36.5-4.6C119.4 0 54.3 65.1 54.3 145.4c0 57.9 33.9 107.9 82.8 131.3l99-272.1z"/><path class="st2" d="M246.9 201.7L214.8 290c53.8-5.6 98.9-40.4 119-88.3h-86.9z"/><path class="st1" d="M395.3 341.9h1.3l2 5.7 1.9-5.7h1.3v6.8h-.9v-4-.7-1l-1.9 5.7h-.9l-2-5.7v5.8h-.9v-6.9h.1zm-.8 0v.8h-2.3v6h-.9v-6H389v-.8h5.5zM100.1 420.7h2.2v-14.8h-2.2v14.8zm14.8 0l-6.8-10.4v10.4h-2.2v-14.8h2.1l6.8 10.4v-10.4h2.2v14.8h-2.1zm10.9 0H124l-4.9-14.8h2.3l3.4 10.7 3.4-10.7h2.4l-4.8 14.8zm7.1 0v-14.8h9.4v2h-7.2v4.3h6.1v2h-6.1v4.4h7.2v2h-9.4v.1zm21.2 0l-6.8-10.4v10.4H145v-14.8h2.1l6.8 10.4v-10.4h2.2v14.8h-2zm10.8-12.7v12.8h-2.2V408h-4.1v-2H169v2h-4.1z"/><path class="st0" d="M178.7 408v4.5h6.1v2h-6.1v6.2h-2.2v-14.8h9.4v2l-7.2.1zm18.3 11.3c-1 1-2.3 1.6-3.9 1.6s-2.9-.6-3.9-1.6c-1.5-1.5-1.4-3.1-1.4-5.9s0-4.5 1.4-5.9c1-1 2.3-1.6 3.9-1.6s2.9.6 3.9 1.6c1.5 1.5 1.4 3.1 1.4 5.9s.1 4.4-1.4 5.9zm-1.7-10.6c-.5-.6-1.3-.9-2.2-.9s-1.7.4-2.2.9c-.7.8-.9 1.6-.9 4.6s.1 3.8.9 4.6c.5.6 1.3.9 2.2.9s1.7-.4 2.2-.9c.7-.8.9-1.6.9-4.6 0-2.9-.1-3.8-.9-4.6zm14.4 12l-3.1-6.2h-2.8v6.2h-2.2v-14.8h5.7c2.8 0 4.6 1.8 4.6 4.3 0 2.1-1.3 3.5-2.9 3.9l3.4 6.5h-2.7v.1zm-2.6-12.7h-3.3v4.6h3.3c1.5 0 2.5-.8 2.5-2.3s-1-2.3-2.5-2.3zm17.8 6.6v6.1h-2.2v-6.1l-4.4-8.7h2.4l3.1 6.5 3.1-6.5h2.4l-4.4 8.7zm24.3 6.2c-3 0-5.3-2.1-5.3-5.1v-9.8h2.2v9.7c0 2 1.2 3.2 3 3.2s3.1-1.2 3.1-3.2v-9.7h2.2v9.8c.1 3.1-2.2 5.1-5.2 5.1zm-9.6-1.5c-1 1-2.3 1.6-3.9 1.6s-2.9-.6-3.9-1.6c-1.5-1.5-1.4-3.1-1.4-5.9s0-4.5 1.4-5.9c1-1 2.3-1.6 3.9-1.6s2.9.6 3.9 1.6c1.5 1.5 1.4 3.1 1.4 5.9s.1 4.4-1.4 5.9zm-1.7-10.6c-.5-.6-1.3-.9-2.2-.9s-1.7.4-2.2.9c-.7.8-.9 1.6-.9 4.6s.1 3.8.9 4.6c.5.6 1.3.9 2.2.9s1.7-.4 2.2-.9c.7-.8.9-1.6.9-4.6 0-2.9-.2-3.8-.9-4.6zm28.1 12l-3.1-6.2h-2.8v6.2h-2.2v-14.8h5.7c2.8 0 4.6 1.8 4.6 4.3 0 2.1-1.3 3.5-2.9 3.9l3.4 6.5H266v.1zm-2.5-12.7h-3.3v4.6h3.3c1.5 0 2.5-.8 2.5-2.3s-1-2.3-2.5-2.3z"/><path class="st2" d="M281.2 420.8c-1.5 0-2.9-.6-3.9-1.6-1.5-1.5-1.4-3.1-1.4-5.9s0-4.5 1.4-5.9c1-1 2.3-1.6 3.9-1.6 2.7 0 4.7 1.6 5.3 4.5h-2.3c-.4-1.5-1.3-2.5-3-2.5-.9 0-1.7.3-2.2.9-.7.8-.9 1.6-.9 4.6s.2 3.8.9 4.6c.5.6 1.3.9 2.2.9 1.6 0 2.7-1 3-2.5h2.3c-.5 2.9-2.6 4.5-5.3 4.5zm13.2 0c-3 0-5.3-2.1-5.3-5.1v-9.8h2.2v9.7c0 2 1.2 3.2 3 3.2s3.1-1.2 3.1-3.2v-9.7h2.2v9.8c.1 3.1-2.2 5.1-5.2 5.1zm12.6 0c-2.2 0-3.8-.5-5.2-1.9l1.5-1.5c1.1 1.1 2.3 1.4 3.8 1.4 1.9 0 3-.8 3-2.3 0-.6-.2-1.2-.6-1.5-.4-.4-.7-.5-1.6-.6l-1.7-.2c-1.2-.2-2.2-.6-2.8-1.2-.7-.7-1.1-1.6-1.1-2.8 0-2.6 1.9-4.3 4.9-4.3 1.9 0 3.3.5 4.6 1.7l-1.4 1.4c-.9-.9-2-1.1-3.2-1.1-1.7 0-2.7 1-2.7 2.3 0 .5.2 1 .6 1.4.4.3 1 .6 1.7.7l1.7.2c1.4.2 2.1.5 2.8 1.1.8.7 1.2 1.8 1.2 3-.2 2.6-2.4 4.2-5.5 4.2zm13.4-12.8v12.8h-2.2V408h-4.1v-2h10.4v2h-4.1zm30.4 12.7v-9.9l-3.4 7.2h-1.7l-3.5-7.2v9.9H340v-14.8h2.2l4.3 9.2 4.2-9.2h2.2v14.8h-2.1zm5.7 0v-14.8h9.4v2h-7.2v4.3h6.1v2h-6.1v4.4h7.2v2h-9.4v.1zm29.7.1c-2.2 0-3.8-.5-5.2-1.9l1.5-1.5c1.1 1.1 2.3 1.4 3.8 1.4 1.9 0 3-.8 3-2.3 0-.6-.2-1.2-.6-1.5-.4-.4-.7-.5-1.6-.6l-1.7-.2c-1.2-.2-2.2-.6-2.8-1.2-.7-.7-1.1-1.6-1.1-2.8 0-2.6 1.9-4.3 4.9-4.3 1.9 0 3.3.5 4.6 1.7l-1.4 1.4c-.9-.9-2-1.1-3.2-1.1-1.7 0-2.7 1-2.7 2.3 0 .5.2 1 .6 1.4.4.3 1 .6 1.7.7l1.7.2c1.4.2 2.1.5 2.8 1.1.8.7 1.2 1.8 1.2 3-.2 2.6-2.4 4.2-5.5 4.2zm-50.7-1.5c-1 1-2.3 1.6-3.9 1.6s-2.9-.6-3.9-1.6c-1.5-1.5-1.4-3.1-1.4-5.9s0-4.5 1.4-5.9c1-1 2.3-1.6 3.9-1.6s2.9.6 3.9 1.6c1.5 1.5 1.4 3.1 1.4 5.9s0 4.4-1.4 5.9zm-1.7-10.6c-.5-.6-1.3-.9-2.2-.9s-1.7.4-2.2.9c-.7.8-.9 1.6-.9 4.6s.1 3.8.9 4.6c.5.6 1.3.9 2.2.9s1.7-.4 2.2-.9c.7-.8.9-1.6.9-4.6 0-2.9-.2-3.8-.9-4.6zm43 12l-3.1-6.2h-2.8v6.2h-2.2v-14.8h5.7c2.8 0 4.6 1.8 4.6 4.3 0 2.1-1.3 3.5-2.9 3.9l3.4 6.5h-2.7v.1zm-2.6-12.7h-3.3v4.6h3.3c1.5 0 2.5-.8 2.5-2.3s-1-2.3-2.5-2.3zM25.8 386.9l-2.2-6.7H10l-2.3 6.7H0l13.8-38h5.8l13.9 38h-7.7zm-8.9-26.8l-4.8 13.8h9.5l-4.7-13.8zm42.7 22.8c-2.9 3-6.5 4.3-10.7 4.3-4.1 0-7.5-1.4-10.3-4.2-1.7-1.7-2.7-3.6-3.1-5.7s-.6-5.3-.6-9.5.2-7.3.6-9.5 1.4-4.1 3.1-5.7c2.8-2.8 6.2-4.2 10.3-4.2 8.7 0 13.3 5.6 14.3 12.2h-7.5c-.9-3.7-3.2-5.6-6.8-5.6-2 0-3.6.7-4.8 2-1.4 1.8-1.8 3.2-1.8 10.7s.3 9 1.8 10.7c1.1 1.3 2.7 2 4.8 2 2.2 0 4-.7 5.3-2.1 1.1-1.3 1.7-3 1.7-5.1V372h-7v-6.2h14.4v5.6c0 5.5-1 8.7-3.7 11.5zm8.3 4v-38H93v6.6H75.4v8.9h15v6.6h-15v9.2H93v6.6l-25.1.1z"/><path class="st0" d="M142.3 365.2v21.7h-6.9v-21.7h-2.9v-5.3h2.9v-3.5c0-4 2.5-8 8.1-8h4v5.9h-2.7c-1.7 0-2.4.9-2.4 2.5v3h5.1v5.3h-5.2v.1zm-15.9 18.6c-1.7 1.8-4.5 3.4-8.7 3.4-4.1 0-6.9-1.6-8.6-3.4-2.5-2.6-3.2-5.8-3.2-10.8s.6-8.2 3.2-10.8c1.7-1.8 4.5-3.4 8.6-3.4s6.9 1.6 8.7 3.4c2.5 2.6 3.2 5.8 3.2 10.8-.1 5-.7 8.2-3.2 10.8zm-5.4-17.6c-.8-.8-1.9-1.2-3.3-1.2s-2.4.4-3.2 1.2c-1.4 1.4-1.6 3.8-1.6 6.7s.2 5.3 1.6 6.8c.8.8 1.8 1.2 3.2 1.2s2.5-.4 3.3-1.2c1.4-1.4 1.6-3.9 1.6-6.8 0-2.8-.2-5.2-1.6-6.7z"/><path class="st1" d="M302.1 387.2c-7.8 0-14-5.3-14-13.4v-25h7.4v24.7c0 4.4 2.6 7 6.6 7s6.6-2.6 6.6-7v-24.7h7.4v25c0 8.1-6.2 13.4-14 13.4zm32.7 0c-4.1 0-7.5-1.4-10.3-4.2-1.7-1.7-2.7-3.6-3.1-5.7s-.6-5.3-.6-9.5.2-7.3.6-9.5 1.4-4.1 3.1-5.7c2.8-2.8 6.2-4.2 10.3-4.2 7.3 0 12.7 4.3 14 12h-7.5c-.8-3.3-2.8-5.4-6.4-5.4-2 0-3.6.6-4.8 2-1.5 1.7-1.9 3.4-1.9 10.7 0 7.4.3 9.1 1.9 10.7 1.1 1.3 2.7 2 4.8 2 3.6 0 5.6-2.1 6.4-5.4h7.5c-1.3 8-6.8 12.2-14 12.2zm33.3-31.7v31.4h-7.4v-31.4h-9.9v-6.6h27.3v6.6h-10zm-192.5 17.1h-7.3v14.3h-7.4v-38h14.7c7.9 0 12.6 5.4 12.6 11.9 0 6.4-4.7 11.8-12.6 11.8zm-.4-17.1h-6.9v10.4h6.9c3.4 0 5.5-2.1 5.5-5.2s-2.1-5.2-5.5-5.2zm37.2 31.4l-7.4-15.2h-5.3v15.2h-7.4v-38h14.9c7.7 0 12.3 5.3 12.3 11.7 0 5.3-3.3 8.7-6.9 10l8.5 16.4h-8.7v-.1zm-5.8-31.4h-7v10h7c3.3 0 5.4-2.1 5.4-5s-2.1-5-5.4-5zm40.7 27.6c-2.7 2.7-5.9 4.2-10.3 4.2s-7.6-1.5-10.3-4.2c-3.8-3.8-3.7-8.6-3.7-15.2s-.1-11.3 3.7-15.2c2.7-2.7 6-4.2 10.3-4.2s7.6 1.5 10.3 4.2c3.8 3.8 3.8 8.6 3.8 15.2s0 11.3-3.8 15.2zm-5.5-25.9c-1.1-1.2-2.7-2-4.8-2-2 0-3.7.8-4.8 2-1.4 1.6-1.8 3.4-1.8 10.7s.4 9.1 1.8 10.7c1.1 1.2 2.8 2 4.8 2s3.7-.8 4.8-2c1.4-1.6 1.9-3.4 1.9-10.7s-.5-9.1-1.9-10.7zm37.7 26.1c-2.5 2.5-6.1 3.6-10 3.6h-13.7v-38h13.7c4 0 7.5 1.1 10 3.6 4.3 4.3 3.8 9.5 3.8 15.2.1 5.8.5 11.3-3.8 15.6zm-5.1-25.5c-1.3-1.5-3-2.4-5.6-2.4h-5.6v24.8h5.6c2.6 0 4.3-.8 5.6-2.4 1.4-1.7 1.6-4.4 1.6-10.2 0-5.6-.3-8-1.6-9.8z"/></svg>