<svg enable-background="new 0 0 132.6 70" viewBox="0 0 132.6 70" xmlns="http://www.w3.org/2000/svg"><path d="m68.1 11.1h1.3v4.7.8s.8-1.9 3.3-1.9c2.6 0 4.2 2.1 4.2 5 0 3-1.8 5-4.3 5-2.3 0-3.1-1.9-3.1-1.9v.8.9h-1.3v-13.4zm4.4 12.5c1.7 0 3.1-1.4 3.1-3.9 0-2.3-1.2-3.9-3-3.9-1.6 0-3.1 1.1-3.1 3.9-.1 2 .9 3.9 3 3.9" fill="#09b"/><path d="m83.1 14.7c2.7 0 4 2 4 4.4v.7h-7.4c.1 2.5 1.7 3.8 3.7 3.8 1.8 0 2.9-1.2 2.9-1.2l.6 1s-1.4 1.3-3.6 1.3c-2.9 0-5-2.1-5-5 .1-3.1 2.2-5 4.8-5m2.7 4c-.1-2-1.3-2.9-2.7-2.9-1.6 0-3 1-3.3 2.9z" fill="#09b"/><path d="m89.1 14.9h1.3v1.7.8c.5-1.5 1.5-2.6 3-2.6.3 0 .5.1.5.1v1.3s-.2 0-.5 0c-1.4 0-2.4 1.1-2.8 2.5-.2.6-.3 1.3-.3 1.9v4h-1.3v-9.7z" fill="#09b"/><path d="m95.8 11.1h1.3v10.9c0 1.3.6 1.5 1.1 1.5h.3v1.2s-.2 0-.5 0c-.8 0-2.2-.2-2.2-2.3z" fill="#1799b9"/><path d="m100.5 11.1h1.4v1.6h-1.4zm0 3.8h1.3v9.6h-1.3z" fill="#09b"/><path d="m104.5 14.9h1.3v1.4.8c.3-.9 1.6-2.4 3.8-2.4 2.4 0 3.2 1.4 3.2 3.7v6.1h-1.3v-5.8c0-1.5-.2-2.8-2.1-2.8-1.6 0-3.1 1.1-3.5 2.7-.1.4-.2.8-.2 1.3v4.6h-1.3v-9.6z" fill="#09b"/><path d="m68.1 32.6h1.2v.9.7s.8-1.9 3.3-1.9c2.6 0 4.2 2.1 4.2 5 0 3-1.8 5-4.3 5-2.3 0-3.1-1.8-3.1-1.8v.8 4.7h-1.3zm4.4 8.6c1.7 0 3.1-1.4 3.1-3.9 0-2.3-1.2-3.9-3-3.9-1.6 0-3.1 1.1-3.1 3.9-.1 2 1 3.9 3 3.9" fill="#247"/><path d="m78.8 32.6h1.3v1.7.8c.5-1.5 1.5-2.6 3-2.6.3 0 .5.1.5.1v1.3s-.2 0-.5 0c-1.4 0-2.4 1.1-2.8 2.5-.2.6-.3 1.3-.3 1.9v4h-1.3v-9.7z" fill="#247"/><path d="m89.5 32.3c2.8 0 5.1 2.1 5.1 5s-2.3 5.1-5.1 5.1-5.1-2.2-5.1-5.1c0-2.8 2.3-5 5.1-5m0 8.9c2.1 0 3.7-1.7 3.7-3.9s-1.7-3.8-3.7-3.8c-2.1 0-3.7 1.6-3.7 3.8-.1 2.2 1.6 3.9 3.7 3.9" fill="#247"/><path d="m100.3 32.3c2.3 0 3.1 1.8 3.1 1.8s0-.3 0-.7v-4.7h1.3v13.4h-1.3v-1c0-.4 0-.7 0-.7s-.8 1.9-3.3 1.9c-2.6 0-4.2-2.1-4.2-5 .1-3 1.9-5 4.4-5m.1 8.9c1.6 0 3.1-1.1 3.1-3.9 0-1.9-1-3.9-3.1-3.9-1.7 0-3.1 1.4-3.1 3.9.1 2.4 1.3 3.9 3.1 3.9" fill="#247"/><path d="m107.2 32.6h1.3v5.8c0 1.5.2 2.8 2.1 2.8 2.2 0 3.6-1.9 3.6-4v-4.6h1.3v9.6h-1.3v-1.4c0-.4 0-.8 0-.8-.4.9-1.6 2.4-3.8 2.4-2.3 0-3.2-1.2-3.2-3.7z" fill="#247"/><path d="m122.4 32.3c2.3 0 3.5 1.4 3.5 1.4l-.7 1s-1.1-1.2-2.8-1.2c-2.1 0-3.7 1.6-3.7 3.9s1.7 3.9 3.8 3.9c1.9 0 3.1-1.4 3.1-1.4l.6 1s-1.3 1.5-3.7 1.5c-2.8 0-5-2-5-5-.1-3 2.1-5.1 4.9-5.1" fill="#247"/><path d="m128.7 33.8h-1.3v-1.1h1.3v-2.8h1.3v2.8h2.4v1.1h-2.4v4.8c0 2.3 1.4 2.5 2.2 2.5h.4v1.2s-.2 0-.6 0c-1.1 0-3.3-.4-3.3-3.6z" fill="#247"/><g fill="#e35"><path d="m68.1 50.2h1.2v.9.7s.8-1.9 3.3-1.9c2.6 0 4.2 2.1 4.2 5 0 3-1.8 5-4.3 5-2.3 0-3.1-1.8-3.1-1.8v.8 4.6h-1.3zm4.4 8.7c1.7 0 3.1-1.4 3.1-3.9 0-2.3-1.2-3.9-3-3.9-1.6 0-3.1 1.1-3.1 3.9-.1 1.9 1 3.9 3 3.9"/><path d="m83.1 50c2.7 0 4 2 4 4.4v.7h-7.4c.1 2.5 1.7 3.8 3.7 3.8 1.8 0 2.9-1.2 2.9-1.2l.6 1s-1.4 1.3-3.6 1.3c-2.9 0-5-2.1-5-5 .1-3.2 2.2-5 4.8-5m2.7 4c-.1-2-1.3-2.9-2.7-2.9-1.6 0-3 1-3.3 2.9z"/><path d="m93.6 50c2.8 0 5.1 2.1 5.1 5s-2.3 5.1-5.1 5.1-5.1-2.2-5.1-5.1c.1-2.9 2.3-5 5.1-5m0 8.8c2.1 0 3.7-1.7 3.7-3.9s-1.7-3.8-3.7-3.8c-2.1 0-3.7 1.6-3.7 3.8 0 2.3 1.7 3.9 3.7 3.9"/><path d="m100.4 50.2h1.2v.9.7s.8-1.9 3.3-1.9c2.6 0 4.2 2.1 4.2 5 0 3-1.8 5-4.3 5-2.3 0-3.1-1.8-3.1-1.8v.8 4.6h-1.3zm4.3 8.7c1.7 0 3.1-1.4 3.1-3.9 0-2.3-1.2-3.9-3-3.9-1.6 0-3.1 1.1-3.1 3.9 0 1.9 1.1 3.9 3 3.9"/><path d="m111.1 46.4h1.3v10.9c0 1.3.6 1.5 1.1 1.5h.3v1.2s-.2 0-.5 0c-.8 0-2.2-.2-2.2-2.3z"/><path d="m119.5 50c2.7 0 4 2 4 4.4v.7h-7.4c.1 2.5 1.7 3.8 3.7 3.8 1.8 0 2.9-1.2 2.9-1.2l.6 1s-1.4 1.3-3.6 1.3c-2.9 0-5-2.1-5-5 .1-3.2 2.2-5 4.8-5m2.7 4c-.1-2-1.3-2.9-2.7-2.9-1.6 0-3 1-3.3 2.9z"/><path d="m36.7 6.9c0-2.4 2-4.4 4.4-4.4s4.4 2 4.4 4.4-2 4.4-4.4 4.4-4.4-2-4.4-4.4"/><path d="m47.5 12.2h-12.8c-.8 0-1.5.7-1.5 1.5v6.1l15.7-5.1v-1c0-.8-.6-1.5-1.4-1.5"/><path d="m24 68.5-24-7.8v1.5l24 7.8z"/></g><path d="m7.8 11.3c2.4 0 4.4-2 4.4-4.4s-2-4.4-4.4-4.4-4.4 2-4.4 4.4 2 4.4 4.4 4.4" fill="#09b"/><path d="m15.7 13.7c0-.8-.7-1.5-1.5-1.5h-12.7c-.8 0-1.5.7-1.5 1.5v1l15.7 5.1z" fill="#09b"/><path d="m25 68.5v1.5l23.9-7.8v-1.5z" fill="#09b"/><path d="m44.4 68v.2h-.7v1.8h-.3v-1.7h-.7v-.3zm.2 0h.4l.6 1.7.6-1.7h.4v2h-.3v-1.2s0-.1 0-.2 0-.2 0-.3l-.6 1.7h-.3l-.6-1.7v.1.2.2 1.2h-.3v-2z" fill="#09b"/><path d="m24.5 8.8c2.4 0 4.4-2 4.4-4.4s-2-4.4-4.4-4.4-4.4 2-4.4 4.4 1.9 4.4 4.4 4.4" fill="#247"/><path d="m24.5 22.7 7.8-2.5v-8.9c0-.8-.7-1.5-1.5-1.5h-12.7c-.8 0-1.5.7-1.5 1.5v8.9z" fill="#247"/><path d="m0 25.5h6.1v7c0 .9-.1 1.6-.1 1.6h.1s1.7-1.9 4.9-1.9c4.9 0 8.2 3.9 8.2 9.5 0 5.7-3.6 9.5-8.5 9.5-3.3 0-5-2-5-2v1 .6h-5.7zm9.5 20.6c1.9 0 3.6-1.6 3.6-4.3s-1.4-4.5-3.6-4.5c-1.8 0-3.6 1.3-3.6 4.5 0 2.1 1.2 4.3 3.6 4.3m10.7-13.5h5.5v.9c0 .6-.1 1.2-.1 1.2h.1s1.7-2.5 5.5-2.5c4.9 0 8.2 3.9 8.2 9.5 0 5.8-3.6 9.5-8.5 9.5-3 0-4.6-1.7-4.6-1.7h-.1s.1.6.1 1.6v6.8h-6.1zm9.5 13.5c1.9 0 3.6-1.6 3.6-4.3s-1.4-4.5-3.6-4.5c-1.8 0-3.6 1.3-3.6 4.5 0 2.2 1.2 4.3 3.6 4.3m10.7-2.1c0 6.1 3.5 6.9 6.7 6.9 1 0 1.8-.1 1.8-.1v-5.3s-.4 0-.7 0c-1.4 0-1.7-.6-1.7-2.3v-17.7h-6.1z" fill="#247"/></svg>