<svg enable-background="new 0 0 576 653.1" viewBox="0 0 576 653.1" xmlns="http://www.w3.org/2000/svg"><g fill="#468173"><path d="m302.3 77.5-7.3-71.1c-.4-3.6-3.4-6.4-7-6.4s-6.7 2.8-7 6.4l-7.3 71.1c-152.4 7.5-273.7 133.4-273.7 287.6 0 159.1 128.9 288 288 288s288-128.9 288-288c0-154.2-121.3-280.1-273.7-287.6zm19.2 153.7c-9.4 0-17-7.6-17-17s7.6-17 17-17h.4c4.1 0 8.1 1.5 11.3 4.2 1.2 1 2.8 1.3 4.2.8s2.5-1.7 2.8-3.2c2.4-13 13.8-22.5 27-22.5 7 0 13.7 2.7 18.9 7.5 1.3 1.3 3.3 1.5 4.9.7 3.6-1.9 7.7-3 11.8-3 13.7 0 24.9 11.2 24.9 24.9s-11.2 24.9-24.9 24.9h-76.5v-.9c-1.6.4-3.2.6-4.8.6zm75.3 176.3c2.3 0 4.5.3 6.8.9 1.9.5 3.9-.3 4.8-2 6-10.4 17.3-16.9 29.3-16.9 18.7 0 33.9 15.2 33.9 33.9s-15.2 33.9-33.9 33.9h-28v.2h-65.6v-.2c-9.2-1.3-16.3-9.2-16.3-18.8 0-10.5 8.5-19 19-19 7.9 0 14.7 4.8 17.6 11.7.9 1.3 2.5 1.9 4.1 1.7 1.4-.2 2.5-1.1 3.1-2.3 1-12.8 11.7-22.9 24.8-22.9h.3c.1-.2.1-.2.1-.2zm-88.3-8.5c-2.3 0-4.3 1.9-4.3 4.3s1.9 4.3 4.3 4.3h66.1c-3.5 3.2-6.4 7.1-8.4 11.5-5.1-5-12-8-19.3-8-9 0-16.9 4.3-21.9 11h-15c-2.3 0-4.3 1.9-4.3 4.3s1.9 4.3 4.3 4.3h10.7c-.8 2.5-1.2 5.2-1.2 7.9 0 15.1 12.3 27.4 27.4 27.4h17.8c-17.2 23.8-45.2 39.3-76.7 39.3-24.8 0-47.4-9.6-64.3-25.3h38.9c2.3 0 4.3-1.9 4.3-4.3s-1.9-4.3-4.3-4.3h-47c-3.8-4.5-7.2-9.3-10.1-14.5h16.5c2.3 0 4.3-1.9 4.3-4.3s-1.9-4.3-4.3-4.3h-20.8c-5.1-11.6-7.9-24.4-7.9-37.9 0-12.5 2.4-24.5 6.9-35.4.3.1.6.1.9.1h9.7c2.3 0 4.3-1.9 4.3-4.3s-1.9-4.3-4.3-4.3h-6.8c2.5-4.7 5.3-9.1 8.5-13.3h38.5c2.3 0 4.3-1.9 4.3-4.3s-1.9-4.3-4.3-4.3h-31.2c17.2-17.9 41.4-29.1 68.2-29.1 48.3 0 88.3 36.4 94 83.3h-73.5zm2.4 117.8v32.8h-45.8v-32.8c7.4 1.6 15.1 2.4 22.9 2.4s15.5-.8 22.9-2.4zm-73-203.6h-53.7c-14.9 0-27-12.1-27-27s12.1-27 27-27c9.5 0 18.4 5.1 23.3 13.3 1 1.6 2.9 2.4 4.7 2 1.6-.4 3.3-.6 5-.6 6.3 0 12.2 3 15.9 8.1.9 1.2 2.3 1.9 3.8 1.7.4 0 .7-.1 1.1-.1 4.9 0 9.2 2.4 11.9 6.1v17.3c-.5.7-1.1 1.4-1.8 2-3 1.2-6 2.5-8.9 4-.4.1-.8.2-1.3.2zm37.6-22.7h2.3v11.5c-4.7.4-9.3 1.2-13.8 2.2v-45.2h13.8v23h-2.3c-2.3 0-4.3 1.9-4.3 4.3s1.9 4.2 4.3 4.2zm10.8 11v-11.1h25.7v13.7c-7.7-1.7-15.8-2.7-24-2.7-.6.1-1.2.1-1.7.1zm-9.2-118h10.9c2.3 0 4.3-1.9 4.3-4.3s-1.9-4.3-4.3-4.3h-10l6-58.2h.9c2.3 0 4.3-1.9 4.3-4.3s-1.9-4.3-4.3-4.3l3.2-31.4 6.6 64.3h-4.8c-2.3 0-4.3 1.9-4.3 4.3s1.9 4.3 4.3 4.3h5.6l5.2 50.4c-2.1 3.2-3.6 6.8-4.1 10.8h-2.6-12-7.7zm4.9 41.5h12 4.6c2.7 5.8 7.5 10.5 13.4 13v44h-25.8v-23h12.8c2.3 0 4.3-1.9 4.3-4.3s-1.9-4.3-4.3-4.3h-12.7v-12.2c0-2.3-1.9-4.3-4.3-4.3s-4.3 1.9-4.3 4.3v12.2h-13.7v-25.4h2.5zm-35.1 396.6c-20.6-3.3-40.6-9-60-17.2-30.9-13.1-58.7-31.8-82.5-55.7-23.9-23.9-42.6-51.6-55.7-82.5-13.5-32-20.4-66-20.4-101.1s6.9-69.1 20.4-101.1c13.1-30.9 31.8-58.7 55.7-82.5 23.9-23.9 51.6-42.6 82.5-55.7 26.7-11.3 54.8-17.9 83.8-19.8l-10.7 104.7h-3.2c-3.9 0-7.1 3.2-7.1 7.1v60.6c-3.3-2-7.2-3.2-11.3-3.3-5.3-6.2-13.1-9.8-21.4-9.8-1.3 0-2.7.1-4 .3-6.6-9.3-17.4-15-28.9-15-19.6 0-35.5 15.9-35.5 35.5s15.9 35.5 35.5 35.5h40.9c-27.7 19.8-45.8 52.2-45.8 88.7 0 47 30 87.2 71.8 102.4v36.9h-7.4c-3.9 0-7.1 3.2-7.1 7.1v43c0 3.9 3.2 7.1 7.1 7.1h3.4v14.8zm68 1.8c-8.9.9-17.9 1.4-26.9 1.4s-18-.5-26.9-1.4v-16.6h53.8zm10.5-49.4h-15.9c-2.3 0-4.3 1.9-4.3 4.3s1.9 4.3 4.3 4.3h15.9v10.2h-74.8v-10.2h38.4c2.3 0 4.3-1.9 4.3-4.3s-1.9-4.3-4.3-4.3h-38.4v-10.2h74.8zm146.2-25.3c-23.9 23.9-51.6 42.6-82.5 55.7-19.3 8.2-39.4 13.9-60 17.2v-14.8h3.4c3.9 0 7.1-3.2 7.1-7.1v-43c0-3.9-3.2-7.1-7.1-7.1h-7.4v-36.9c23.8-8.7 43.8-25.4 56.6-46.9h56.1c23.4 0 42.4-19 42.4-42.4s-19-42.4-42.4-42.4c-14 0-27.1 7-35 18.5-2-.4-4-.5-6-.5-.2 0-.3 0-.5 0-4.3-41.6-32.2-76.3-70.1-90.5v-68.5h76.5c18.4 0 33.4-15 33.4-33.4s-15-33.4-33.4-33.4c-4.5 0-9 .9-13.1 2.7-6.4-5.1-14.2-7.9-22.5-7.9-15.3 0-28.6 9.6-33.7 23.5-3.6-1.8-7.5-2.7-11.5-2.7-2.8 0-5.5.5-8.1 1.3l-8.6-83.9c29 1.9 57.1 8.5 83.8 19.8 30.9 13.1 58.7 31.8 82.5 55.7 23.9 23.9 42.6 51.6 55.7 82.5 13.5 32 20.4 66 20.4 101.1s-6.9 69.1-20.4 101.1c-13 30.7-31.7 58.5-55.6 82.3z"/><path d="m289.9 399h-4.7c-2.3 0-4.3 1.9-4.3 4.3s1.9 4.3 4.3 4.3h4.7c2.3 0 4.3-1.9 4.3-4.3s-1.9-4.3-4.3-4.3z"/><path d="m244.6 448.3h-4.7c-2.3 0-4.3 1.9-4.3 4.3s1.9 4.3 4.3 4.3h4.7c2.3 0 4.3-1.9 4.3-4.3s-2-4.3-4.3-4.3z"/></g></svg>