<svg id="Calque_1" xmlns="http://www.w3.org/2000/svg" viewBox="0 0 550 637.6"><style>.st0{fill:#3e6860}</style><path class="st0" d="M214.3 403.9c-1.6 0-2.9 1.3-2.9 2.9v6c0 1.6 1.3 2.9 2.9 2.9s2.9-1.3 2.9-2.9v-6c-.1-1.6-1.4-2.9-2.9-2.9zM238.6 403.9c-1.6 0-2.9 1.3-2.9 2.9v6c0 1.6 1.3 2.9 2.9 2.9s2.9-1.3 2.9-2.9v-6c-.1-1.6-1.4-2.9-2.9-2.9zM262.8 403.9c-1.6 0-2.9 1.3-2.9 2.9v6c0 1.6 1.3 2.9 2.9 2.9 1.6 0 2.9-1.3 2.9-2.9v-6c0-1.6-1.3-2.9-2.9-2.9zM287.1 403.9c-1.6 0-2.9 1.3-2.9 2.9v6c0 1.6 1.3 2.9 2.9 2.9 1.6 0 2.9-1.3 2.9-2.9v-6c0-1.6-1.3-2.9-2.9-2.9zM311.4 403.9c-1.6 0-2.9 1.3-2.9 2.9v6c0 1.6 1.3 2.9 2.9 2.9 1.6 0 2.9-1.3 2.9-2.9v-6c0-1.6-1.3-2.9-2.9-2.9zM335.7 403.9c-1.6 0-2.9 1.3-2.9 2.9v6c0 1.6 1.3 2.9 2.9 2.9 1.6 0 2.9-1.3 2.9-2.9v-6c0-1.6-1.3-2.9-2.9-2.9z"/><path class="st0" d="M284.8 87.8L278.3 3c-.3-2-1.7-3-3.3-3-1.6 0-3 1-3.1 3l-6.6 84.8C118.1 93 0 214.2 0 362.6c0 151.6 123.3 275 275 275s275-123.3 275-275C550 214.2 431.9 93 284.8 87.8zm-10.3-36.7c0-.2.2-.4.4-.4s.4.2.4.4l3.7 48.3h-8.4l3.9-48.3zm-4.1 52.7h9.1l2.1 28.4H268l2.4-28.4zm-2.6 32.7H282l2.3 28.6h-18.7l2.2-28.6zm16.8 32.9l2.1 28.4H263l2.3-28.4h19.3zm25 312.4h-1.3v-3.2c31.1.7 58.1 18.7 71.6 44.6-16.4 1.8-31.4 10.9-41.1 25.1-8.1-6.2-18-9.6-27.8-9.3-.9 0-1.8.1-2.7.1v-25.8h1.3l1.7-.1s3.4-2.6 3.4-4.9V487c0-2.9-2.3-5.2-5.1-5.2zm-34.6-20c-18.4 0-35.3-6.2-48.9-16.6h97.8c-13.6 10.4-30.5 16.6-48.9 16.6zM242.1 507v-18.7h66V507h-66zm59.8 6.5v26.2c-8 1.8-15.5 5.5-21.6 11-7.4-10.5-17.8-18.2-31.6-20.1v-17.1h53.2zm-59.6-.1v17.2c-4.8.2-9.5 1-14 2.6 2.4-7.3 6.1-13.9 11-20.1.5.2 1.1.3 1.7.3h1.3zm6.4-31.6v-17.4c8.3 2.6 17 4 26.2 4 9.4 0 18.5-1.5 27-4.3v17.7h-53.2zm-27.4-40.6c-4.8-4.3-9-9.1-12.7-14.4h132.9c-3.7 5.3-7.9 10.1-12.7 14.4H221.3zM206 422.8c-4.8-7.9-8.2-16.7-10.1-26h158.2c-1.8 9.3-5.3 18.1-10.1 26H206zm87.7-156.1v7.9h-37v-7.9h37zm-37-2.7v-7.9l37 .1v7.7h-37zm37 13.4v7.9h-37v-7.9h37zm0 10.7v7.7h-37v-7.7h37zm-39.6 90.8v-.8H296v3.8c0 3.6-.1 7-.3 10.5h-41.4c-.1-3.5-.3-7-.3-10.5.1-.8.1-1.8.1-3zm.1-4.7c.5-32.8 6.3-61 14.5-71.7h12.8c8.1 10.8 13.8 39 14.5 71.7h-41.8zm3.6-71.8h7.2c-7.9 12.6-13.3 40.2-13.9 71.7h-33.7c1.8-32.3 16.7-60.2 37.9-71.2.9-.1 1.7-.3 2.5-.5zm-40.5 76.5v-.8h33.9v3.8c0 3.6.1 7 .3 10.5H218c-.4-3.5-.6-7-.6-10.5-.2-1-.1-2-.1-3zm-2.7-4.7h-19.9c2.7-30.8 22.7-56.8 50.3-67.8-17.4 13.8-28.9 39.2-30.4 67.8zm-.2 4v3.8c.1 3.6.3 7 .6 10.5h-19.9c-.5-3.7-.8-7.5-.8-11.3 0-1 0-2 .1-3h20zm84.5.7v-.8h33.8v.7s0 2.1-.1 3.1c-.1 3.6-.3 7-.6 10.5h-33.3c0-3.6.2-7.1.2-10.5v-3zm36.2 13.6c.4-3.6.6-7.1.8-10.5v-3.2-.6h19.7c0 1 .1 2 .1 3 0 3.8-.3 7.6-.8 11.3h-19.8zm.6-18.3c-1.5-28.6-13.2-53.7-30.5-67.7 27.4 11.1 47.4 37 50.1 67.7h-19.6zm-3.1 0h-33.7c-.6-31.7-6-59.3-13.8-71.7h7.1c.9.2 1.8.4 2.8.7 21.1 10.9 35.9 38.7 37.6 71zm-83.5-125.4v-13h52v13h-52zm11.5-19.4l2.1-27.3h24.4l2.1 27.3h-28.6zm-232 133.2c0-131.8 104-239.8 234.4-246.1l-8.9 112.9H247c-2.4 0-4.4 2-4.4 4.4v17c0 2.4 2 4.4 4.4 4.4h3v42.4c-36 10.7-62.3 44-62.3 83.5 0 36.6 22.6 68 54.6 80.9v19.7H241c-2.9 0-5.1 2.3-5.1 5.1v20.5c-1.8 2.1-3.4 4.3-5 6.8-12.9-6.8-28.4-9.6-43.7-8.2-31.4 3.1-56.6 22.5-63.9 50.6-57.7-45-94.7-115.2-94.7-193.9zm199 156.9c-3 5.4-5.2 11.2-6.9 17-4.5 2.7-8.5 6.3-12 10.4-2.8-1.7-6.1-2.7-9.7-2.7-6.7 0-13 3.6-16.8 9.5-6.1-5.5-13.8-9.3-21.7-10.7-10.5-1.4-20.5 1.3-28.6 6.9 8.4-19.7 29.8-35.2 56-37.7 14-1.2 28.1 1.3 39.7 7.3zM275 609c-54.7 0-106-18.2-147-48.5 8.2-8.7 20.3-12.4 31.5-10.9 10 1.4 19 7.3 24.8 16.1.9 1.4 2.8 1.7 4.2.8 1.3-.9 1.6-3 .7-4.4-.9-1.1-1.8-2.4-2.7-3.6.1-.2.3-.3.3-.6 2.5-4.4 7.2-7.3 12.1-7.3 6.1 0 11.5 4.1 13.5 10.3.4 1.3 1.6 2.2 2.8 2.2.3 0 .6 0 .9-.2 1.6-.5 2.4-2.4 1.9-3.9-.9-3.2-2.5-5.8-4.6-8 8.7-10.3 21.5-15.5 34.7-13.7 11.1 1.7 21.1 8 27.4 17.8-1.8 2.1-3.6 4.4-5.1 6.9-.9 1.4-.4 3.5.9 4.4 1.3.9 3.3.5 4.2-.9 7.6-12.8 20.8-20.3 35.2-20.3 9.6 0 19.2 3.6 26.6 10.3 6.2 5.4 10.7 12.5 13 20.4.3 1.4 1.6 2.4 3.1 2.4 1.7 0 3.1-1.4 3.1-3.1 0-.3-.1-.6-.1-.9-2.4-8.3-6.8-15.8-12.9-21.8.1-.2.3-.2.3-.3 9.7-14.5 25.4-23 42.2-23 17.5 0 34 9.3 43.9 25C387.7 588.4 333.7 609 275 609zm160-59.1c-10.5-16.7-28.8-27.2-48.5-27.4-14.2-29.1-43.8-49.3-78.2-50.1v-10.7c31.6-13.1 53.7-44.2 53.7-80.5 0-39.3-26.2-72.6-62-83.5v-42.4h3c2.4 0 4.4-2 4.4-4.4v-17c0-2.4-2-4.4-4.4-4.4h-7.4l-8.7-112.9c130.3 6.3 234.4 114.2 234.4 246.1 0 74.8-33.5 142-86.3 187.2z"/></svg>