<svg xmlns="http://www.w3.org/2000/svg" viewBox="0 0 24 24"><path d="M12 0C8.7 0 8.3 0 7.1.1c-1.3 0-2.2.2-3 .5C3.4.9 2.7 1.3 2 2S.9 3.3.6 4.1c-.3.8-.5 1.7-.5 3C0 8.3 0 8.7 0 12s0 3.7.1 4.9c.1 1.3.3 2.1.6 2.9.2.8.6 1.5 1.3 2.2.7.7 1.3 1.1 2.1 1.4.8.3 1.6.5 2.9.6h5c3.3 0 3.7 0 4.9-.1 1.3-.1 2.1-.3 2.9-.6.8-.3 1.5-.7 2.1-1.4.7-.7 1.1-1.3 1.4-2.1.3-.8.5-1.6.6-2.9.1-1.2.1-1.6.1-4.9s0-3.7-.1-4.9c-.1-1.3-.3-2.1-.6-2.9-.2-.8-.6-1.5-1.3-2.2-.7-.7-1.3-1.1-2.1-1.4C19.1.3 18.3.1 17 0h-5zm0 2.2c3.2 0 3.6 0 4.9.1 1.2.1 1.8.2 2.2.4.6.2 1 .5 1.4.9.4.4.7.8.9 1.4.2.4.4 1.1.4 2.2.1 1.3.1 1.6.1 4.8s0 3.6-.1 4.9c-.1 1.2-.3 1.8-.4 2.2-.2.6-.5 1-.9 1.4-.4.4-.8.7-1.4.9-.4.2-1.1.4-2.2.4-1.3.1-1.6.1-4.9.1-3.2 0-3.6 0-4.9-.1-1.2-.1-1.8-.3-2.2-.4-.6-.2-1-.5-1.4-.9-.4-.4-.7-.8-.9-1.4-.2-.4-.4-1.1-.4-2.2 0-1.3-.1-1.6-.1-4.8 0-3.2 0-3.6.1-4.9 0-1.2.2-1.9.4-2.3.2-.6.5-1 .9-1.4.4-.4.8-.7 1.4-.9.4-.2 1.1-.4 2.2-.4 1.3-.1 1.6-.1 4.9 0 0-.1 0 0 0 0zm0 3.6c-3.4 0-6.2 2.8-6.2 6.2 0 3.4 2.8 6.2 6.2 6.2 3.4 0 6.2-2.8 6.2-6.2 0-3.4-2.8-6.2-6.2-6.2zM12 16c-2.2 0-4-1.8-4-4s1.8-4 4-4 4 1.8 4 4-1.8 4-4 4zm7.8-10.4c0 .8-.6 1.4-1.4 1.4-.8 0-1.4-.6-1.4-1.4s.6-1.4 1.4-1.4c.8 0 1.4.6 1.4 1.4z" fill="#fff"/></svg>